<?xml version="1.0" encoding="UTF-8"?>
<svg id="Calque_2" data-name="Calque 2" xmlns="http://www.w3.org/2000/svg" viewBox="0 0 122.71 16.09">
  <defs>
    <style>
      .cls-1 {
        fill: #000;
      }

      .cls-1, .cls-2, .cls-3 {
        stroke-width: 0px;
      }

      .cls-2 {
        fill: #111;
      }

      .cls-3 {
        fill: #fff;
      }
    </style>
  </defs>
  <g id="Textendex">
    <g>
      <g>
        <rect class="cls-3" x=".87" y=".88" width="120.96" height="14.33"/>
        <path class="cls-2" d="M0,0v16.09h122.71V0H0ZM121.83,15.21H.87V.88h120.96v14.33Z"/>
      </g>
      <rect class="cls-2" x="46.87" y=".44" width="42.74" height="15.21"/>
      <g>
        <path class="cls-1" d="M6,13.64c-.4-.08-.76-.2-1.09-.37s-.62-.38-.88-.65-.48-.59-.65-.96c-.17-.37-.31-.81-.4-1.29-.09-.49-.14-1.04-.14-1.65v-.96c0-.92.1-1.69.31-2.32.21-.63.52-1.15.94-1.56.42-.4.93-.7,1.54-.88.61-.18,1.31-.27,2.11-.27.7,0,1.32.08,1.88.24s1.04.39,1.44.7c.4.31.72.7.94,1.16s.36,1,.38,1.61h-3.53c-.02-.12-.05-.24-.1-.34-.05-.11-.11-.21-.2-.29s-.19-.15-.32-.2c-.13-.05-.27-.07-.44-.07-.15,0-.28.02-.4.05-.12.03-.22.08-.32.15-.09.07-.17.15-.24.26-.07.11-.12.25-.16.41s-.07.36-.09.59c-.02.23-.03.49-.03.78v.98c0,.3.01.56.04.79.02.23.06.42.11.59.05.17.11.31.19.42.08.11.16.2.26.27.1.07.22.12.35.15s.28.04.44.04c.13,0,.25-.01.37-.04s.22-.06.3-.1c.09-.04.17-.1.23-.17.07-.07.12-.15.17-.23.05-.08.08-.18.11-.28.02-.1.03-.22.03-.34v-.17h-1.74v-2.52h4.98v6.35h-2.2l-.18-.97c-.1.16-.23.31-.38.46s-.35.28-.58.39c-.23.12-.48.21-.77.28-.29.07-.62.1-.99.1-.46,0-.88-.04-1.28-.12Z"/>
        <path class="cls-1" d="M13.47,5.74h3.36v1.48c.06-.23.15-.45.27-.65s.26-.37.42-.52c.16-.15.34-.26.54-.35.2-.09.42-.13.65-.13h.14v3.28h-.54c-.21,0-.41.02-.58.05-.17.03-.32.09-.45.18-.12.09-.22.21-.28.37-.06.16-.09.37-.09.64v3.4h-3.43v-7.75Z"/>
        <path class="cls-1" d="M19.56,3.01h3.43v2.3h-3.43v-2.3ZM19.56,5.74h3.43v7.75h-3.43v-7.75Z"/>
        <path class="cls-1" d="M24.08,5.74h3.43v.8c.1-.15.21-.28.35-.41.14-.13.3-.24.47-.33.18-.09.37-.17.58-.22.21-.05.45-.08.7-.08.29,0,.54.03.77.08.23.05.42.13.6.24.17.1.32.24.44.4.12.16.22.34.3.55.15-.22.3-.41.48-.57.17-.16.36-.29.56-.4.2-.1.41-.18.63-.23.22-.05.45-.07.69-.07.44,0,.81.06,1.11.19.3.13.54.31.72.57.18.25.31.57.39.94.08.38.12.82.12,1.31v4.97h-3.43v-4.56c0-.17,0-.31-.03-.43-.02-.12-.04-.22-.08-.3-.04-.08-.09-.14-.16-.17-.07-.03-.15-.05-.25-.05s-.18.02-.24.05c-.07.03-.12.09-.16.17-.04.08-.07.18-.09.3-.02.12-.03.26-.03.43v4.56h-3.43v-4.56c0-.17,0-.31-.03-.43-.02-.12-.04-.22-.08-.3-.04-.08-.09-.14-.16-.17-.07-.03-.15-.05-.25-.05s-.18.02-.25.05c-.07.03-.12.09-.16.17-.04.08-.06.18-.08.3-.02.12-.03.26-.03.43v4.56h-3.43v-7.75Z"/>
        <path class="cls-1" d="M40.15,13.67c-.38-.06-.72-.16-1.03-.3s-.58-.31-.82-.51c-.23-.21-.43-.45-.59-.73-.16-.28-.28-.6-.36-.96-.08-.36-.12-.77-.12-1.22v-.78c0-.66.1-1.23.29-1.71.19-.48.46-.87.82-1.18.35-.31.79-.53,1.3-.68s1.09-.21,1.74-.21c.5,0,.96.05,1.36.14.4.09.75.23,1.05.41.3.18.55.41.76.69.21.28.37.6.5.96.13.37.23.78.28,1.24.06.46.08.96.08,1.51h0s-4.76,0-4.76,0v.02c0,.16.02.31.03.43s.04.23.07.33.06.17.11.23c.04.06.09.11.15.15.06.04.12.07.19.08.07.01.14.02.22.02.1,0,.19-.01.27-.04.08-.03.15-.07.2-.13.06-.06.1-.14.14-.24s.06-.21.07-.35h3.22c-.01.42-.11.81-.29,1.17-.18.36-.43.66-.76.92-.33.26-.74.46-1.22.61-.48.15-1.03.22-1.65.22-.45,0-.86-.03-1.24-.09ZM41.03,7.52c-.09.05-.16.11-.22.2-.06.09-.1.2-.12.33-.02.14-.04.3-.04.48v.09h1.4v-.07c0-.14,0-.26-.01-.36-.01-.11-.03-.2-.05-.28-.02-.08-.05-.15-.08-.21-.04-.06-.08-.1-.13-.14s-.11-.06-.18-.08c-.07-.02-.15-.03-.24-.03-.13,0-.23.02-.32.07Z"/>
        <path class="cls-3" d="M48.75,3.01h3.53v10.48h-3.53V3.01Z"/>
        <path class="cls-3" d="M53.39,5.74h3.43v.8c.1-.15.21-.28.35-.41.14-.13.3-.24.47-.33s.37-.17.58-.22c.21-.05.45-.08.7-.08.44,0,.81.06,1.11.19.3.13.54.31.72.57.18.25.32.57.4.94.08.38.12.82.12,1.31v4.97h-3.43v-4.56c0-.17,0-.31-.03-.43-.02-.12-.04-.22-.08-.3-.04-.08-.09-.14-.16-.17-.07-.03-.15-.05-.25-.05s-.18.02-.25.05c-.07.03-.12.09-.16.17-.04.08-.06.18-.08.3-.02.12-.03.26-.03.43v4.56h-3.43v-7.75Z"/>
        <path class="cls-3" d="M64.22,13.65c-.25-.05-.48-.12-.69-.24-.21-.11-.4-.26-.57-.44-.17-.18-.32-.41-.44-.68-.13-.27-.22-.6-.29-.97-.07-.37-.1-.8-.1-1.29v-.83c0-.49.03-.92.1-1.3s.16-.7.29-.97c.13-.27.27-.5.44-.68.17-.18.36-.33.57-.44.21-.11.44-.19.69-.24s.5-.07.77-.07.5.03.71.09.39.14.56.24c.16.1.3.22.42.35.12.13.21.27.29.41v-3.59h3.43v10.48h-3.43v-.86c-.08.14-.17.28-.29.41-.12.13-.26.25-.42.35s-.35.18-.56.24-.45.09-.71.09-.52-.02-.77-.07ZM66.6,11.26c.07-.02.12-.06.17-.1s.09-.11.12-.19.05-.17.07-.28c.02-.11.03-.24.04-.39,0-.15.01-.32.01-.5v-.36c0-.19,0-.36-.01-.5,0-.15-.02-.28-.04-.39s-.04-.21-.07-.28c-.03-.08-.07-.14-.12-.19-.05-.05-.1-.08-.17-.1-.06-.02-.14-.03-.23-.03-.08,0-.15,0-.21.03-.06.02-.11.05-.16.1-.05.05-.08.11-.11.19-.03.08-.05.17-.07.28s-.03.24-.04.39c0,.15-.01.32-.01.5v.36c0,.19,0,.36.01.5,0,.15.02.28.04.39.02.11.04.21.07.28.03.08.07.14.11.19s.1.08.16.1c.06.02.13.03.21.03s.16-.01.22-.03Z"/>
        <path class="cls-3" d="M74.17,13.67c-.38-.06-.72-.16-1.03-.3-.31-.14-.58-.31-.82-.51-.23-.21-.43-.45-.59-.73-.16-.28-.28-.6-.36-.96s-.12-.77-.12-1.22v-.78c0-.66.1-1.23.29-1.71.19-.48.46-.87.82-1.18.35-.31.79-.53,1.3-.68s1.09-.21,1.74-.21c.5,0,.96.05,1.36.14.4.09.75.23,1.05.41.3.18.55.41.76.69.21.28.37.6.5.96.13.37.23.78.28,1.24.06.46.08.96.08,1.51h0s-4.76,0-4.76,0v.02c0,.16.02.31.03.43.02.12.04.23.07.33.03.09.06.17.11.23.04.06.09.11.15.15.06.04.12.07.19.08.07.01.14.02.23.02.1,0,.19-.01.27-.04s.15-.07.2-.13c.06-.06.1-.14.14-.24s.06-.21.07-.35h3.22c-.01.42-.11.81-.29,1.17-.18.36-.43.66-.76.92s-.74.46-1.22.61c-.48.15-1.03.22-1.65.22-.45,0-.86-.03-1.24-.09ZM75.05,7.52c-.09.05-.16.11-.22.2s-.1.2-.12.33-.04.3-.04.48v.09h1.4v-.07c0-.14,0-.26-.01-.36-.01-.11-.03-.2-.05-.28s-.05-.15-.08-.21c-.04-.06-.08-.1-.13-.14-.05-.04-.11-.06-.18-.08-.07-.02-.15-.03-.24-.03-.13,0-.23.02-.32.07Z"/>
        <path class="cls-3" d="M81.77,9.79l-2.57-4.04h3.74l.79,1.27.89-1.27h3.16l-2.57,3.59,2.64,4.16h-3.74l-.86-1.39-.97,1.39h-3.16l2.66-3.7Z"/>
        <path class="cls-1" d="M91.34,10.27h3.38v3.22h-3.38v-3.22Z"/>
        <path class="cls-1" d="M95.87,3.01h3.99l2.1,6.16h.02l-.2-3.24v-2.93h3.25v10.48h-3.99l-2.09-5.67h-.02l.2,3.25v2.42h-3.25V3.01Z"/>
        <path class="cls-1" d="M108.79,13.67c-.38-.06-.72-.16-1.03-.3-.31-.14-.58-.31-.82-.51-.23-.21-.43-.45-.59-.73-.16-.28-.28-.6-.36-.96s-.12-.77-.12-1.22v-.78c0-.66.1-1.23.29-1.71.19-.48.46-.87.82-1.18.35-.31.79-.53,1.3-.68s1.09-.21,1.74-.21c.5,0,.96.05,1.36.14.4.09.75.23,1.05.41.3.18.55.41.76.69.21.28.37.6.5.96.13.37.23.78.28,1.24.06.46.08.96.08,1.51h0s-4.76,0-4.76,0v.02c0,.16.02.31.03.43.02.12.04.23.07.33.03.09.06.17.11.23.04.06.09.11.15.15.06.04.12.07.19.08.07.01.14.02.23.02.1,0,.19-.01.27-.04s.15-.07.2-.13c.06-.06.1-.14.14-.24s.06-.21.07-.35h3.22c-.01.42-.11.81-.29,1.17-.18.36-.43.66-.76.92s-.74.46-1.22.61c-.48.15-1.03.22-1.65.22-.45,0-.86-.03-1.24-.09ZM109.67,7.52c-.09.05-.16.11-.22.2s-.1.2-.12.33-.04.3-.04.48v.09h1.4v-.07c0-.14,0-.26-.01-.36-.01-.11-.03-.2-.05-.28s-.05-.15-.08-.21c-.04-.06-.08-.1-.13-.14-.05-.04-.11-.06-.18-.08-.07-.02-.15-.03-.24-.03-.13,0-.23.02-.32.07Z"/>
        <path class="cls-1" d="M117.18,13.44c-.31-.03-.57-.08-.79-.16-.22-.07-.4-.17-.54-.3-.14-.13-.25-.28-.33-.46-.08-.18-.14-.4-.17-.66s-.05-.54-.05-.87v-2.94h-.89v-2.32h.89v-2.25h3.43v2.25h1.11v2.32h-1.11v2.35c0,.16.01.28.04.37.02.09.06.17.12.21.05.05.12.08.21.1.09.02.2.03.33.03h.41v2.36h-1.58c-.4,0-.76-.02-1.07-.05Z"/>
      </g>
    </g>
  </g>
</svg>